<?xml version="1.0" encoding="utf-8"?>
<!DOCTYPE svg PUBLIC "-//W3C//DTD SVG 1.1//EN" "http://www.w3.org/Graphics/SVG/1.1/DTD/svg11.dtd">
<svg version="1.1" id="Layer_1" xmlns="http://www.w3.org/2000/svg" xmlns:xlink="http://www.w3.org/1999/xlink" x="0px" y="0px"
	 width="130px" height="130px" preserveAspectRatio="xMinYMin none" viewBox="0 0 130 130" enable-background="new 0 0 130 130" xml:space="preserve">
<g id="Layer_2">
	<rect fill="#F2F2F2" width="130" height="130"/>
</g>
<circle fill="#E6E6E6" stroke="#B3B3B3" stroke-miterlimit="10" cx="65" cy="65" r="65"/>
<path fill="#CCCCCC" stroke="#B3B3B3" stroke-miterlimit="10" d="M60.5,23c0,0,14.667,0,8.92,16.707
	C67.385,45.625,51.167,56,51.167,56S36.533,67.974,42,74.118s-3.303,12.87-7.946,7.561c-4.644-5.308-13.836-3.941-17.677-0.706
	s-14.222,5.773-8.234-8.36s2.693-32.848,16.287-33.061S51.167,20.457,51.5,12.919C52.167-2.167,60.5,23,60.5,23z"/>
<path fill="#CCCCCC" stroke="#B3B3B3" stroke-miterlimit="10" d="M85.154,17.311c0,0,10.57,31.737,4.052,32.401
	c-6.518,0.664-9.177-0.764-9.279,3.511s-15.796,12.864-6.602,20.749s-12.2,11.381-17.797,10.702
	c-5.597-0.679-13.428,11.328-11.606,16.923c1.822,5.595,5.934,13.154,14.921,16.553c8.986,3.399,10.449,6.795,8.879,10.038
	c-1.57,3.244,13.028,2.22,13.592-3.317c0.564-5.538,13.141-6.785,10.767-11.574c-2.375-4.789-16.692-5.129-12.829-8.404
	c3.863-3.275,13.235-7.511,16.995-6.512c3.761,1,8.05,0.049,8.728-9.191c0.678-9.24,8.231-20.254,1.625-21.23
	c-6.606-0.976-5.537-25.52,1.613-21.801c7.15,3.719,14.068,6.767,16.88,3.677c2.812-3.088-2.926-18.199-10.06-21.906
	c-7.134-3.708-14.732-16.202-19.185-13.245S82.222,7.488,85.154,17.311z"/>
<path fill="#C15B5F" d="M55,46.643C55,51.811,50.811,56,45.643,56H20.357C15.189,56,11,51.811,11,46.643V14.357
	C11,9.189,15.189,5,20.357,5h25.287C50.811,5,55,9.189,55,14.357V46.643z"/>
<polygon fill="#C15B5F" points="43.794,55.625 33.333,74.118 22.873,55.625 "/>
<rect x="19" y="14" fill="#CCCCCC" width="7" height="33"/>
<rect x="28" y="14" fill="#CCCCCC" width="7" height="33"/>
<rect x="37" y="14" fill="#CCCCCC" width="3" height="33"/>
<rect x="42" y="14" fill="#CCCCCC" width="3" height="33"/>
<rect x="21" y="17" fill="#C15B5F" width="3" height="6"/>
<rect x="30" y="17" fill="#C15B5F" width="3" height="6"/>
</svg>
