<?xml version="1.0" encoding="utf-8"?>
<!DOCTYPE svg PUBLIC "-//W3C//DTD SVG 1.1//EN" "http://www.w3.org/Graphics/SVG/1.1/DTD/svg11.dtd">
<svg version="1.1" id="Layer_1" xmlns="http://www.w3.org/2000/svg" xmlns:xlink="http://www.w3.org/1999/xlink" x="0px" y="0px"
	 preserveAspectRatio="xMinYMin none" viewBox="0 0 130 130" enable-background="new 0 0 130 130" xml:space="preserve">
<g id="Layer_2">
	<rect fill="#F2F2F2" width="130" height="130"/>
</g>
<g id="Layer_1_1_">
	<polygon fill="#E6E6E6" stroke="#C15B5F" stroke-miterlimit="10" points="15.846,99.145 19.512,106.653 27.784,107.819 
		21.777,113.626 23.224,121.854 15.846,117.935 8.467,121.854 9.914,113.626 3.907,107.819 12.18,106.653 	"/>
	<polygon fill="#E6E6E6" stroke="#C15B5F" stroke-miterlimit="10" points="40.173,76.689 43.839,84.197 52.112,85.363 46.104,91.17 
		47.551,99.398 40.173,95.479 32.794,99.398 34.241,91.17 28.234,85.363 36.507,84.197 	"/>
	<polygon fill="#E6E6E6" stroke="#C15B5F" stroke-miterlimit="10" points="64.5,54.234 68.166,61.741 76.439,62.908 70.431,68.714 
		71.879,76.942 64.5,73.023 57.121,76.942 58.569,68.714 52.561,62.908 60.834,61.741 	"/>
	<polygon fill="#E6E6E6" stroke="#C15B5F" stroke-miterlimit="10" points="88.827,31.778 92.493,39.285 100.766,40.452 
		94.759,46.258 96.206,54.487 88.827,50.568 81.449,54.487 82.896,46.258 76.888,40.452 85.161,39.285 	"/>
	<polygon fill="#E6E6E6" stroke="#C15B5F" stroke-miterlimit="10" points="113.154,9.322 116.82,16.829 125.093,17.996 
		119.086,23.802 120.533,32.031 113.154,28.112 105.776,32.031 107.223,23.802 101.216,17.996 109.488,16.829 	"/>
</g>
</svg>
