<?xml version="1.0" encoding="utf-8"?>
<!DOCTYPE svg PUBLIC "-//W3C//DTD SVG 1.1//EN" "http://www.w3.org/Graphics/SVG/1.1/DTD/svg11.dtd">
<svg version="1.1" xmlns="http://www.w3.org/2000/svg" xmlns:xlink="http://www.w3.org/1999/xlink" x="0px" y="0px"
	 width="616.463px" height="648px" viewBox="-187.964 -153.725 616.463 648" preserveAspectRatio="xMinYMin none" enable-background="new -187.964 -153.725 616.463 648"
	 xml:space="preserve">
<g id="Layer_2">
	<rect x="-46.192" y="-137.833" fill="#F2F2F2" width="458.969" height="609.124"/>
	<polygon fill="#DFDFDF" points="232.147,-137.833 412.777,43.095 412.777,-137.833 	"/>
</g>
<g id="Ebene_3">
	
		<rect id="rect3372" x="-173.561" y="-95.046" fill="none" stroke="#C8C8C8" stroke-width="6.0045" width="414.34" height="139.261"/>
	<g>
		<path id="path4463" fill="#C15B5F" d="M115.929,262.786c11.188-21.929,23.903-46.636,34.08-71.441l0,0l4.024-9.792
			C140.74,130.969,132.769,90.365,139.89,64.11l0,0c1.917-6.845,9.845-10.998,18.321-10.998l0,0l5.165,0.076h0.948
			c11.604-0.178,17.068,14.583,17.688,20.322l0,0c1.024,9.558-3.398,25.734-3.398,25.734l0,0c0-6.532,0.256-17.087-3.867-26.195l0,0
			c-4.799-10.539-9.383-16.835-13.493-17.833l0,0c-2.075,1.386-4.092,4.256-4.783,9.777l0,0c-1.431,7.741-1.86,17.512-1.86,22.549
			l0,0c0,17.796,3.504,41.285,10.39,65.499l0,0c1.299-3.749,2.442-7.351,3.351-10.726l0,0c1.412-5.319,10.389-40.578,10.389-40.578
			l0,0c0,0-2.262,46.935-5.422,61.136l0,0c-0.677,3.001-1.424,5.969-2.202,9.007l0,0c11.355,31.727,29.652,60.044,51.479,80.424l0,0
			c8.606,8.043,19.475,14.528,29.762,20.439l0,0c22.465-3.21,43.149-4.726,60.405-4.535l0,0
			c22.894,0.302,39.699,3.688,46.504,10.391l0,0c3.332,3.258,4.684,7.193,5.104,11.604l0,0c0.1,1.716-0.736,5.748-0.981,6.76l0,0
			c0.245-1.225,0.245-7.249-18.133-13.115l0,0c-14.474-4.627-41.563-4.483-74.068-1.023l0,0
			c37.597,18.394,74.225,27.533,85.833,22.054l0,0c2.838-1.383,6.28-6.099,6.28-6.099l0,0c0,0-2.046,9.296-3.515,11.62l0,0
			c-1.875,2.525-5.553,5.26-9.04,6.182l0,0c-18.332,4.891-66.051-6.427-107.651-30.197l0,0
			c-46.478,6.845-97.521,19.49-138.436,32.91l0,0C64.453,389.758,34.225,422.12,9.634,409.809l0,0l-9.041-4.546
			c-3.675-2.102-4.236-7.219-3.386-11.386l0,0c2.867-14.027,20.456-35.154,55.787-56.251l0,0
			c3.803-2.301,20.743-11.258,20.743-11.258l0,0c0,0-12.541,12.138-15.479,14.52l0,0c-28.2,23.109-49.013,52.182-48.494,63.453l0,0
			l0.102,0.983C33.821,401.91,69.745,353.152,115.929,262.786 M130.565,270.28c-7.714,14.528-15.254,27.998-22.215,40.366l0,0
			c38.506-16.133,79.95-26.457,119.401-33.791l0,0c-5.302-3.661-10.449-7.538-15.292-11.636l0,0
			c-21.725-18.393-38.288-41.34-50.294-65.487l0,0C154.551,220.245,145.497,242.043,130.565,270.28"/>
	</g>
	<g>
		<path fill="#1A171B" d="M167.819,413.897l-3.081-19.909c-0.885-5.728-2-14.68-2.869-20.884h-0.333
			c-0.91,6.249-2.162,15.466-3.074,20.934l-3.322,19.859H167.819z M153.47,426.85l-4.013,22.071h-14.819l18.475-91.832h18.185
			l16.781,91.832H173.19l-3.946-22.071L153.47,426.85L153.47,426.85z"/>
		<path fill="#1A171B" d="M221.81,407.905c0-1.237,0-2.669-0.221-3.965c-0.605-4.547-2.828-8.63-6.374-8.63
			c-6.125,0-8.38,9.603-8.38,20.813c0,12.873,3.211,20.219,8.159,20.219c2.268,0,4.852-1.269,6.282-6.663
			c0.331-1.082,0.533-2.526,0.533-4.205L221.81,407.905L221.81,407.905z M237.009,354.655v75.217c0,5.975,0.287,13.313,0.513,19.05
			h-13.146l-0.845-7.666h-0.337c-2.185,4.718-7,8.736-12.726,8.736c-12.59,0-18.83-15.104-18.83-34.173
			c0-23.239,9.317-34.55,19.456-34.55c5.301,0,8.711,2.838,10.449,6.92h0.268v-33.534L237.009,354.655L237.009,354.655z"/>
		<path fill="#1A171B" d="M268.671,437.289c5.822,0,7.238-11.898,7.238-21.755c0-9.376-1.416-21.57-7.482-21.57
			c-6.423,0-7.777,12.194-7.777,21.57c0,11.306,1.718,21.755,7.909,21.755H268.671z M268.403,449.992
			c-14.016,0-22.816-12.255-22.816-34.159c0-23.917,11.272-34.563,23.15-34.563c13.816,0,22.503,12.857,22.503,34.166
			c0,27.396-13.589,34.557-22.725,34.557h-0.112V449.992z"/>
		<path fill="#1A171B" d="M314.954,425.157c0,1.646,0.267,3.201,0.6,4.243c1.517,5.573,4.121,6.941,6.195,6.941
			c5.859,0,8.245-8.108,8.245-21.08c0-11.809-2.516-19.951-8.313-19.951c-2.892,0-5.324,3.419-6.149,7.077
			c-0.311,1.14-0.577,2.948-0.577,4.185v18.585H314.954z M299.759,354.655h15.195v34.667h0.244
			c3.011-5.113,6.998-8.053,12.766-8.053c11.477,0,17.229,14.195,17.229,32.732c0,23.451-8.58,35.99-19.697,35.99
			c-5.305,0-8.846-2.557-12.033-9.043h-0.314l-0.868,7.973h-13.04c0.205-5.531,0.52-13.075,0.52-19.05v-75.216H299.759z"/>
		<path fill="#1A171B" d="M381.647,409.288c0.065-9.347-2.452-15.878-7.266-15.878c-5.502,0-7.844,8.765-8.022,15.878H381.647z
			 M366.317,420.995c0.178,12.03,5.991,15.96,13.211,15.96c4.566,0,8.515-1.108,11.409-2.306l2.029,11.902
			c-4.01,1.9-10.251,3.08-16.226,3.08c-16.313,0-25.224-12.122-25.224-32.853c0-22.237,10.339-35.604,23.845-35.604
			c13.034,0,20.278,11.809,20.278,31.08c0,4.413-0.181,6.886-0.449,8.826L366.317,420.995z"/>
	</g>
	<g>
		<g>
			<g>
				<rect x="-173.742" y="-94.495" fill="#C15B5F" width="414.34" height="139.262"/>
				<path fill="#FFF9F9" d="M-65.448-74.06h30.151c8.963,0,15.836,2.645,20.617,7.934c4.815,5.25,7.221,12.746,7.221,22.494
					c0,9.79-2.406,17.329-7.221,22.619c-4.781,5.25-11.654,7.875-20.617,7.872h-11.986v32.366h-18.165V-74.06 M-47.282-56.629
					v26.055h10.052c3.521,0,6.243-1.124,8.162-3.373c1.919-2.292,2.878-5.521,2.878-9.686c0-4.166-0.958-7.374-2.878-9.623
					c-1.918-2.249-4.64-3.374-8.162-3.374h-10.052 M23.493-55.88V1.044h6.509c7.424,0,13.087-2.437,16.986-7.311
					c3.932-4.874,5.899-11.956,5.899-21.244c0-9.249-1.952-16.286-5.852-21.121c-3.899-4.832-9.578-7.248-17.033-7.248H23.493
					 M5.327-74.06h19.155c10.696,0,18.655,1.02,23.874,3.06c5.254,2.002,9.752,5.416,13.495,10.249
					c3.304,4.206,5.756,9.059,7.361,14.556c1.604,5.501,2.406,11.727,2.406,18.684c0,7.039-0.803,13.331-2.406,18.871
					C67.607-3.142,65.154,1.71,61.85,5.918c-3.774,4.831-8.303,8.268-13.587,10.309c-5.285,1.999-13.211,2.998-23.781,2.998H5.327
					V-74.06 M85.536-74.06h49.023v18.181h-30.858v17.372h29.017v18.184h-29.017v39.549H85.536V-74.06"/>
			</g>
		</g>
	</g>
</g>
</svg>
