<?xml version="1.0" encoding="utf-8"?>
<!DOCTYPE svg PUBLIC "-//W3C//DTD SVG 1.1//EN" "http://www.w3.org/Graphics/SVG/1.1/DTD/svg11.dtd">
<svg version="1.1" id="Icon" xmlns="http://www.w3.org/2000/svg" xmlns:xlink="http://www.w3.org/1999/xlink" x="0px" y="0px"
	 preserveAspectRatio="xMinYMin none" viewBox="457.058 346 610.942 610.942" enable-background="new 457.058 346 610.942 610.942"
	 xml:space="preserve">
<linearGradient id="SVGID_1_" gradientUnits="userSpaceOnUse" x1="351.8562" y1="479.6161" x2="351.8562" y2="491.1161" gradientTransform="matrix(53.1254 0 0 53.1254 -17929.9805 -25133.8105)">
	<stop  offset="0" style="stop-color:#EBE9D6"/>
	<stop  offset="1" style="stop-color:#EBE9D6"/>
</linearGradient>
<path fill="url(#SVGID_1_)" d="M1068,956.942L1068,956.942H457.058l0,0V346l0,0H1068l0,0V956.942z"/>
<g id="QHexlS.tif_2_">
	<g>
		<path fill="#D3CCA7" d="M842.172,461.515c0.701-11.959,1.237-21.063,1.81-30.817c15.427,0,29.746,0,44.855,0
			c0.421,2.626,1.109,4.819,1.109,7.012c-0.089,90.372,0.357,180.757-0.727,271.141c-0.344,28.891-2.971,58.242-20.591,83.219
			c-18.883,26.8-45.607,40.927-77.405,45.989c-35.802,5.712-71.03,4.526-104.219-11.947c-32.117-15.925-48.284-45.518-43.643-80.185
			c13.694,2.053,27.438,3.901,41.08,6.375c2.614,0.459,6.388,3.022,6.91,5.253c7.982,34.31,34.795,39.652,63.584,41.285
			c40.634,2.295,70.087-15.211,78.463-49.1c4.692-19.01,4.488-39.257,6.464-58.293c-19.508,10.022-36.108,22.249-54.672,27.438
			c-52.581,14.65-104.41-7.178-130.433-55.131c-33.928-62.539-32.308-126.442,3.723-187.221
			c36.389-61.366,123.471-71.515,175.351-22.861C835.81,455.573,837.824,457.435,842.172,461.515z M682.529,566.55
			c2.27,19.992,2.856,34.578,5.725,48.705c7.204,35.611,32.857,60.958,63.686,64.477c34.03,3.876,64.502-10.825,77.609-40.927
			c18.398-42.215,19.151-86.062,0.523-128.137c-13.107-29.554-37.536-46.193-71.553-44.485
			c-32.181,1.619-53.588,19.609-64.502,48.272C687.183,532.431,685.5,552.359,682.529,566.55z"/>
	</g>
</g>
<g id="QHexlS.tif_1_">
	<g>
		<path fill="#532D0B" d="M842.172,487.015c0.701-11.959,1.237-21.063,1.81-30.817c15.427,0,29.746,0,44.855,0
			c0.421,2.626,1.109,4.819,1.109,7.012c-0.089,90.372,0.357,180.757-0.727,271.141c-0.344,28.891-2.971,58.242-20.591,83.219
			c-18.883,26.8-45.607,40.927-77.405,45.989c-35.802,5.712-71.03,4.526-104.219-11.947c-32.117-15.925-48.284-45.518-43.643-80.185
			c13.694,2.053,27.438,3.901,41.08,6.375c2.614,0.459,6.388,3.022,6.91,5.253c7.982,34.31,34.795,39.652,63.584,41.285
			c40.634,2.295,70.087-15.211,78.463-49.1c4.692-19.01,4.488-39.257,6.464-58.293c-19.508,10.022-36.108,22.249-54.672,27.438
			c-52.581,14.65-104.41-7.178-130.433-55.131c-33.928-62.539-32.308-126.442,3.723-187.221
			c36.389-61.366,123.471-71.515,175.351-22.861C835.81,481.073,837.824,482.935,842.172,487.015z M682.529,592.05
			c2.27,19.992,2.856,34.578,5.725,48.705c7.204,35.611,32.857,60.958,63.686,64.477c34.03,3.876,64.502-10.825,77.609-40.927
			c18.398-42.215,19.151-86.062,0.523-128.137c-13.107-29.554-37.536-46.193-71.553-44.485
			c-32.181,1.619-53.588,19.609-64.502,48.272C687.183,557.931,685.5,577.859,682.529,592.05z"/>
	</g>
</g>
</svg>
