<?xml version="1.0" encoding="utf-8"?>
<!DOCTYPE svg PUBLIC "-//W3C//DTD SVG 1.1//EN" "http://www.w3.org/Graphics/SVG/1.1/DTD/svg11.dtd">
<svg version="1.1" id="Icon" xmlns="http://www.w3.org/2000/svg" xmlns:xlink="http://www.w3.org/1999/xlink" x="0px" y="0px"
	 width="130px" height="130px" viewBox="0 0 130 130" preserveAspectRatio="xMinYMin none" enable-background="new 0 0 130 130" xml:space="preserve">
<linearGradient id="SVGID_1_" gradientUnits="userSpaceOnUse" x1="104.0955" y1="-774.703" x2="104.0955" y2="-781.324" gradientTransform="matrix(19.5858 0 0 -19.5858 -1973.7947 -15173.0186)">
	<stop  offset="0" style="stop-color:#4B71B8"/>
	<stop  offset="1" style="stop-color:#4B71B8"/>
</linearGradient>
<path fill="url(#SVGID_1_)" d="M0,0.161h130l0,0v129.67L0,129.839"/>
<path fill="#FFFFFF" d="M107.479,25.501c0,0-10.037,0-16.695,0c-9.915,0-20.935,4.156-20.935,18.506c0.051,4.995,0,9.782,0,15.17
	H58.385v18.216h11.821v52.445h21.717V77.045h14.336l1.297-17.918h-16.01c0,0,0.043-7.977,0-10.289c0-5.667,5.913-5.345,6.26-5.345
	c2.821,0,8.282,0.008,9.687,0V25.498h-0.016C107.479,25.498,107.479,25.501,107.479,25.501z"/>
</svg>
