<?xml version="1.0" encoding="utf-8"?>
<!-- Generator: Adobe Illustrator 17.0.0, SVG Export Plug-In . SVG Version: 6.00 Build 0)  -->
<!DOCTYPE svg PUBLIC "-//W3C//DTD SVG 1.1//EN" "http://www.w3.org/Graphics/SVG/1.1/DTD/svg11.dtd">
<svg version="1.1" id="Icon" xmlns="http://www.w3.org/2000/svg" xmlns:xlink="http://www.w3.org/1999/xlink" x="0px" y="0px"
	 width="612.179px" height="610.661px" viewBox="-15.058 77.071 612.179 610.661"
	 enable-background="new -15.058 77.071 612.179 610.661" xml:space="preserve">
<linearGradient id="SVGID_1_" gradientUnits="userSpaceOnUse" x1="90.5474" y1="892.2549" x2="90.5474" y2="898.8759" gradientTransform="matrix(92.2309 0 0 92.2309 -8060.2383 -82216.4453)">
	<stop  offset="0" style="stop-color:#4B71B8"/>
	<stop  offset="1" style="stop-color:#4B71B8"/>
</linearGradient>
<path fill="url(#SVGID_1_)" d="M-15.058,77.071H597.12l0,0v610.623l-612.178,0.038"/>
<path fill="#FFFFFF" d="M491.066,196.398c0,0-47.264,0-78.617,0c-46.69,0-98.583,19.571-98.583,87.146
	c0.242,23.524,0,46.066,0,71.438h-53.983v85.782h55.667v246.967h102.268V439.12h67.511l6.107-84.379h-75.391
	c0,0,0.204-37.562,0-48.45c0-26.686,27.846-25.168,29.478-25.168c13.285,0,39.002,0.038,45.619,0v-84.737h-0.076V196.398z"/>
</svg>
