<?xml version="1.0" encoding="utf-8"?>
<!DOCTYPE svg PUBLIC "-//W3C//DTD SVG 1.1//EN" "http://www.w3.org/Graphics/SVG/1.1/DTD/svg11.dtd">
<svg version="1.1" id="Icon" xmlns="http://www.w3.org/2000/svg" xmlns:xlink="http://www.w3.org/1999/xlink" x="0px" y="0px"
	 preserveAspectRatio="xMinYMin none" viewBox="457.058 346 610.942 610.942" enable-background="new 457.058 346 610.942 610.942"
	 xml:space="preserve">
<linearGradient id="SVGID_1_" gradientUnits="userSpaceOnUse" x1="351.8562" y1="479.6161" x2="351.8562" y2="491.1161" gradientTransform="matrix(53.1254 0 0 53.1254 -17929.9805 -25133.8105)">
	<stop  offset="0" style="stop-color:#AF2300"/>
	<stop  offset="1" style="stop-color:#AF2300"/>
</linearGradient>
<path fill="url(#SVGID_1_)" d="M1068,956.942L1068,956.942H457.058l0,0V346l0,0H1068l0,0V956.942z"/>
<path fill="#890000" d="M849.733,779.194c7.612,19.992,25.462,29.746,46.997,35.815c1.887,10.034,4.794,19.074,4.475,31.314
	c-48.718,15.517-89.416-10.659-102.918-44.74c-143.157,26.8-230.992-62.194-221.506-194.68
	c6.592-91.978,79.279-169.664,176.766-172.278c119.723-3.213,183.46,77.941,183.46,183.473
	C937.007,690.301,900.988,749.958,849.733,779.194z M753.521,481.609c-121.546,6.273-135.086,306.37,24.607,277.453
	c-3.353-21.267-22.644-26.596-42.509-31.327c-2.894-8.287-3.647-18.73-4.475-29.083c41.871-18.411,77.622,14.994,96.199,26.851
	C866.078,645.497,863.567,475.935,753.521,481.609z"/>
<path fill="#FFFFFF" d="M849.733,804.26c7.612,19.992,25.462,29.746,46.997,35.815c1.887,10.034,4.794,19.074,4.475,31.314
	c-48.718,15.517-89.416-10.659-102.918-44.74c-143.157,26.8-230.992-62.194-221.506-194.68
	c6.592-91.978,79.279-169.664,176.766-172.278c119.723-3.213,183.46,77.941,183.46,183.473
	C937.007,715.38,900.988,775.025,849.733,804.26z M753.521,506.688c-121.546,6.26-135.086,306.37,24.607,277.44
	c-3.353-21.267-22.644-26.596-42.509-31.327c-2.894-8.287-3.647-18.73-4.475-29.083c41.871-18.411,77.622,14.994,96.199,26.851
	C866.078,670.577,863.567,501.014,753.521,506.688z"/>
</svg>
