<?xml version="1.0" encoding="utf-8"?>
<!DOCTYPE svg PUBLIC "-//W3C//DTD SVG 1.1//EN" "http://www.w3.org/Graphics/SVG/1.1/DTD/svg11.dtd">
<svg version="1.1" id="Icon" xmlns="http://www.w3.org/2000/svg" xmlns:xlink="http://www.w3.org/1999/xlink" x="0px" y="0px"
	 preserveAspectRatio="xMinYMin none" viewBox="0 90 612 612" enable-background="new 0 90 612 612" xml:space="preserve">
<linearGradient id="SVGID_1_" gradientUnits="userSpaceOnUse" x1="24.4608" y1="792.5392" x2="24.4608" y2="744.5392" gradientTransform="matrix(12.75 0 0 -12.75 -5.875 10194.875)">
	<stop  offset="0" style="stop-color:#fcfcfc"/>
	<stop  offset="1" style="stop-color:#fcfcfc"/>
</linearGradient>
<path fill="url(#SVGID_1_)" d="M612,702H0V90h612V702z"/>
<path fill="none" d="M353.111,470.09c0,0,19.367,64.54,76.168,51.637c56.814-12.916,60.677-85.221,27.119-122.642
	C422.828,361.639,336.332,421.016,353.111,470.09z"/>
<path d="M150.807,321.782c0,0-42.636,44.612-35.228,117.198c7.408,72.599,53.371,132.498,206.652,132.498
	c153.268,0,191.824-80.006,192.729-145.809c0.905-65.777-28.726-95.115-42.636-105.098c0,0,0.089-47.226-4.373-72.178
	c0,0-23.587-2.792-74.524,26.392c0,0-69.539-6.796-162.206,0.829c0,0-38.926-26.01-78.145-32.819
	C153.076,242.796,146.574,283.749,150.807,321.782z"/>
<path fill="#E2B89F" d="M219.44,393.641h190.179c0,0,53.894-6.056,53.894,82.11c0.434,77.596-142.022,72.586-142.022,72.586
	s-156.009,6.196-156.098-79.93C165.189,390.632,219.44,393.641,219.44,393.641z"/>
<g>
	<g>
		<path fill="#9C584F" d="M392.279,429.035c12.227,0,22.147,15.938,22.147,35.534c0,19.635-9.919,35.547-22.147,35.547
			c-12.214,0-22.134-15.912-22.134-35.547C370.133,444.973,380.065,429.035,392.279,429.035z"/>
		<path fill="#FFFFFF" d="M392.279,506.492c-15.988,0-28.509-18.411-28.509-41.922c0-23.498,12.521-41.909,28.509-41.909
			c16.001,0,28.522,18.411,28.522,41.909C420.801,488.081,408.268,506.492,392.279,506.492z M392.279,435.41
			c-7.459,0-15.759,11.972-15.759,29.159c0,17.2,8.3,29.172,15.759,29.172c7.459,0,15.772-11.972,15.772-29.172
			C408.051,447.383,399.738,435.41,392.279,435.41z"/>
	</g>
</g>
<g>
	<g>
		<path fill="#9C584F" d="M239.279,429.035c12.227,0,22.147,15.938,22.147,35.534c0,19.635-9.919,35.547-22.147,35.547
			c-12.215,0-22.134-15.912-22.134-35.547C217.133,444.973,227.065,429.035,239.279,429.035z"/>
		<path fill="#FFFFFF" d="M239.279,506.492c-15.988,0-28.509-18.411-28.509-41.922c0-23.498,12.521-41.909,28.509-41.909
			s28.522,18.411,28.522,41.909C267.801,488.081,255.268,506.492,239.279,506.492z M239.279,435.41
			c-7.459,0-15.759,11.972-15.759,29.159c0,17.2,8.3,29.172,15.759,29.172c7.459,0,15.772-11.972,15.772-29.172
			C255.051,447.383,246.738,435.41,239.279,435.41z"/>
	</g>
</g>
<path fill="#9C584F" d="M306.969,506.989c0,0,6.362-18.079,14.14-1.135c0,0-5.827,3.787-3.634,12.699l18.207,6.962h-41.182
	l16.32-7.331C310.819,518.183,313.165,504.719,306.969,506.989z"/>
</svg>
