<?xml version="1.0" encoding="utf-8"?>
<!-- Generator: Adobe Illustrator 17.0.0, SVG Export Plug-In . SVG Version: 6.00 Build 0)  -->
<!DOCTYPE svg PUBLIC "-//W3C//DTD SVG 1.1//EN" "http://www.w3.org/Graphics/SVG/1.1/DTD/svg11.dtd">
<svg version="1.1" id="Icon" xmlns="http://www.w3.org/2000/svg" xmlns:xlink="http://www.w3.org/1999/xlink" x="0px" y="0px"
	 width="610.942px" height="610.942px" viewBox="457.058 346 610.942 610.942" enable-background="new 457.058 346 610.942 610.942"
	 xml:space="preserve">
<linearGradient id="SVGID_1_" gradientUnits="userSpaceOnUse" x1="351.8562" y1="479.6161" x2="351.8562" y2="491.1161" gradientTransform="matrix(53.1254 0 0 53.1254 -17929.9805 -25133.8105)">
	<stop  offset="0" style="stop-color:#F9F9F9"/>
	<stop  offset="1" style="stop-color:#F9F9F9"/>
</linearGradient>
<path fill="url(#SVGID_1_)" d="M1068,956.942H457.058V346H1068V956.942z"/>
<g>
	<polygon fill="#919191" points="874.149,863.535 606.871,863.535 606.871,698.461 640.391,698.461 640.391,830.181 
		840.629,830.181 840.629,698.461 874.149,698.461 	"/>
	<rect x="663.851" y="770.167" fill="#919191" width="154.16" height="33.341"/>
	
		<rect x="663.564" y="716.947" transform="matrix(-0.9961 -0.088 0.088 -0.9961 1413.8394 1529.5775)" fill="#A78B68" width="154.144" height="33.353"/>
	<polygon fill="#C19653" points="820.612,711.989 672.253,670.334 681.356,638.217 829.715,679.897 	"/>
	<polygon fill="#D48C28" points="833.706,670.334 700.124,593.745 716.852,564.841 850.447,641.405 	"/>
	<polygon fill="#FE8908" points="859.831,634.749 770.645,509.646 797.968,490.343 887.167,615.459 	"/>
	<polygon fill="#FF7A15" points="894.779,611.812 867.442,460.839 900.414,454.923 927.776,605.909 	"/>
</g>
</svg>
