<?xml version="1.0" encoding="utf-8"?>
<!DOCTYPE svg PUBLIC "-//W3C//DTD SVG 1.1//EN" "http://www.w3.org/Graphics/SVG/1.1/DTD/svg11.dtd">
<svg version="1.1" id="Icon" xmlns="http://www.w3.org/2000/svg" xmlns:xlink="http://www.w3.org/1999/xlink" x="0px" y="0px"
	 width="130px" height="130px" viewBox="0 0 130 130" preserveAspectRatio="xMinYMin none" enable-background="new 0 0 130 130" xml:space="preserve">
<linearGradient id="SVGID_1_" gradientUnits="userSpaceOnUse" x1="333.1993" y1="-347.7452" x2="333.1993" y2="-359.2452" gradientTransform="matrix(11.3043 0 0 -11.3043 -3701.6013 -3931.0332)">
	<stop  offset="0" style="stop-color:#EBE9D6"/>
	<stop  offset="1" style="stop-color:#EBE9D6"/>
</linearGradient>
<path fill="url(#SVGID_1_)" d="M130,130L130,130H0l0,0V0l0,0h130l0,0V130z"/>
<g id="QHexlS.tif_2_">
	<g>
		<path fill="#D3CCA7" d="M81.947,24.58c0.149-2.545,0.263-4.482,0.385-6.557c3.283,0,6.33,0,9.545,0
			c0.09,0.559,0.236,1.025,0.236,1.492c-0.019,19.23,0.076,38.463-0.155,57.695c-0.073,6.148-0.632,12.393-4.381,17.708
			c-4.018,5.703-9.705,8.709-16.471,9.786c-7.618,1.215-15.114,0.963-22.176-2.542c-6.834-3.389-10.274-9.686-9.287-17.062
			c2.914,0.437,5.838,0.83,8.741,1.357c0.556,0.098,1.359,0.643,1.47,1.118c1.698,7.301,7.404,8.437,13.53,8.785
			c8.646,0.488,14.914-3.237,16.696-10.448c0.998-4.045,0.955-8.353,1.375-12.404c-4.151,2.133-7.683,4.734-11.633,5.838
			c-11.189,3.117-22.217-1.527-27.754-11.731c-7.219-13.307-6.875-26.905,0.792-39.838c7.743-13.058,26.273-15.217,37.312-4.865
			C80.593,23.316,81.022,23.712,81.947,24.58z M47.977,46.93c0.483,4.254,0.608,7.358,1.218,10.364
			c1.533,7.578,6.992,12.971,13.551,13.72c7.241,0.825,13.725-2.303,16.514-8.709c3.915-8.983,4.075-18.313,0.111-27.266
			c-2.789-6.289-7.987-9.829-15.225-9.466c-6.848,0.344-11.403,4.173-13.725,10.272C48.967,39.67,48.609,43.91,47.977,46.93z"/>
	</g>
</g>
<g id="QHexlS.tif_1_">
	<g>
		<path fill="#532D0B" d="M81.947,30.006c0.149-2.545,0.263-4.482,0.385-6.557c3.283,0,6.33,0,9.545,0
			c0.09,0.559,0.236,1.025,0.236,1.492c-0.019,19.23,0.076,38.463-0.155,57.695c-0.073,6.148-0.632,12.393-4.381,17.708
			c-4.018,5.703-9.705,8.709-16.471,9.786c-7.618,1.215-15.114,0.963-22.176-2.542c-6.834-3.389-10.274-9.686-9.287-17.062
			c2.914,0.437,5.838,0.83,8.741,1.357c0.556,0.098,1.359,0.643,1.47,1.118c1.698,7.301,7.404,8.437,13.53,8.785
			c8.646,0.488,14.914-3.237,16.696-10.448c0.998-4.045,0.955-8.353,1.375-12.404c-4.151,2.133-7.683,4.734-11.633,5.838
			c-11.189,3.117-22.217-1.527-27.754-11.731c-7.219-13.307-6.875-26.905,0.792-39.838c7.743-13.058,26.273-15.217,37.312-4.865
			C80.593,28.742,81.022,29.138,81.947,30.006z M47.977,52.356c0.483,4.254,0.608,7.358,1.218,10.364
			c1.533,7.578,6.992,12.971,13.551,13.72c7.241,0.825,13.725-2.303,16.514-8.709c3.915-8.983,4.075-18.313,0.111-27.266
			c-2.789-6.289-7.987-9.829-15.225-9.466c-6.848,0.344-11.403,4.173-13.725,10.272C48.967,45.096,48.609,49.336,47.977,52.356z"/>
	</g>
</g>
</svg>
