<?xml version="1.0" encoding="utf-8"?>
<!DOCTYPE svg PUBLIC "-//W3C//DTD SVG 1.1//EN" "http://www.w3.org/Graphics/SVG/1.1/DTD/svg11.dtd">
<svg version="1.1" id="Icon" xmlns="http://www.w3.org/2000/svg" xmlns:xlink="http://www.w3.org/1999/xlink" x="0px" y="0px"
	 preserveAspectRatio="xMinYMin none" viewBox="0 90 130 130" enable-background="new 0 90 130 130" xml:space="preserve">
<path fill="#F2F2F2" d="M130,220H0V90h130V220z"/>
<path fill="none" d="M75.007,170.738c0,0,4.114,13.709,16.179,10.969c12.068-2.744,12.889-18.102,5.761-26.051
	C89.816,147.701,71.443,160.314,75.007,170.738z"/>
<path d="M32.034,139.235c0,0-9.057,9.476-7.483,24.895c1.574,15.421,11.337,28.145,43.897,28.145
	c32.557,0,40.747-16.995,40.939-30.973c0.192-13.972-6.102-20.204-9.057-22.325c0,0,0.019-10.032-0.929-15.332
	c0,0-5.01-0.593-15.83,5.606c0,0-14.771-1.444-34.456,0.176c0,0-8.269-5.525-16.599-6.971
	C32.516,122.457,31.135,131.156,32.034,139.235z"/>
<path fill="#E2B89F" d="M46.613,154.499h40.398c0,0,11.448-1.286,11.448,17.442c0.092,16.483-30.168,15.419-30.168,15.419
	s-33.139,1.316-33.158-16.979C35.089,153.86,46.613,154.499,46.613,154.499z"/>
<g>
	<g>
		<path fill="#9C584F" d="M83.327,162.017c2.597,0,4.704,3.386,4.704,7.548c0,4.171-2.107,7.551-4.704,7.551
			c-2.594,0-4.702-3.38-4.702-7.551C78.623,165.403,80.733,162.017,83.327,162.017z"/>
		<path fill="#FFFFFF" d="M83.327,178.471c-3.396,0-6.056-3.911-6.056-8.905c0-4.991,2.66-8.902,6.056-8.902
			c3.399,0,6.059,3.911,6.059,8.902C89.386,174.56,86.724,178.471,83.327,178.471z M83.327,163.371
			c-1.584,0-3.348,2.543-3.348,6.194c0,3.654,1.763,6.197,3.348,6.197c1.584,0,3.35-2.543,3.35-6.197
			C86.677,165.915,84.912,163.371,83.327,163.371z"/>
	</g>
</g>
<g>
	<g>
		<path fill="#9C584F" d="M50.827,162.017c2.597,0,4.704,3.386,4.704,7.548c0,4.171-2.107,7.551-4.704,7.551
			c-2.595,0-4.702-3.38-4.702-7.551C46.123,165.403,48.233,162.017,50.827,162.017z"/>
		<path fill="#FFFFFF" d="M50.827,178.471c-3.396,0-6.056-3.911-6.056-8.905c0-4.991,2.66-8.902,6.056-8.902
			s6.059,3.911,6.059,8.902C56.886,174.56,54.224,178.471,50.827,178.471z M50.827,163.371c-1.584,0-3.347,2.543-3.347,6.194
			c0,3.654,1.763,6.197,3.347,6.197s3.35-2.543,3.35-6.197C54.177,165.915,52.412,163.371,50.827,163.371z"/>
	</g>
</g>
<path fill="#9C584F" d="M65.206,178.576c0,0,1.351-3.84,3.004-0.241c0,0-1.238,0.804-0.772,2.697l3.868,1.479h-8.748l3.467-1.557
	C66.024,180.954,66.522,178.094,65.206,178.576z"/>
</svg>
