<?xml version="1.0" encoding="utf-8"?>
<!DOCTYPE svg PUBLIC "-//W3C//DTD SVG 1.1//EN" "http://www.w3.org/Graphics/SVG/1.1/DTD/svg11.dtd">
<svg version="1.1" id="Icon" xmlns="http://www.w3.org/2000/svg" xmlns:xlink="http://www.w3.org/1999/xlink" x="0px" y="0px"
	 width="130px" height="130px" viewBox="0 0 130 130" preserveAspectRatio="xMinYMin none" enable-background="new 0 0 130 130" xml:space="preserve">
<linearGradient id="SVGID_1_" gradientUnits="userSpaceOnUse" x1="333.1993" y1="-347.7452" x2="333.1993" y2="-359.2452" gradientTransform="matrix(11.3043 0 0 -11.3043 -3701.6013 -3931.0332)">
	<stop  offset="0" style="stop-color:#AF2300"/>
	<stop  offset="1" style="stop-color:#AF2300"/>
</linearGradient>
<path fill="url(#SVGID_1_)" d="M130,130L130,130H0l0,0V0l0,0h130l0,0V130z"/>
<path fill="#890000" d="M83.556,92.178c1.62,4.254,5.418,6.33,10,7.621c0.402,2.135,1.02,4.059,0.952,6.663
	c-10.367,3.302-19.026-2.268-21.9-9.52c-30.462,5.703-49.152-13.234-47.133-41.425c1.403-19.572,16.869-36.102,37.613-36.658
	c25.475-0.684,39.038,16.585,39.038,39.041C102.127,73.262,94.462,85.957,83.556,92.178z M63.083,28.856
	c-25.863,1.335-28.744,65.191,5.236,59.038c-0.713-4.525-4.818-5.659-9.045-6.666c-0.616-1.763-0.776-3.985-0.952-6.188
	c8.91-3.918,16.517,3.191,20.47,5.714C87.034,63.729,86.499,27.648,63.083,28.856z"/>
<path fill="#FFFFFF" d="M83.556,97.511c1.62,4.254,5.418,6.33,10,7.621c0.402,2.135,1.02,4.059,0.952,6.663
	c-10.367,3.302-19.026-2.268-21.9-9.52c-30.462,5.703-49.152-13.234-47.133-41.425c1.403-19.572,16.869-36.102,37.613-36.658
	c25.475-0.684,39.038,16.585,39.038,39.041C102.127,78.599,94.462,91.291,83.556,97.511z M63.083,34.192
	c-25.863,1.332-28.744,65.191,5.236,59.035c-0.713-4.525-4.818-5.659-9.045-6.666c-0.616-1.763-0.776-3.985-0.952-6.188
	c8.91-3.918,16.517,3.191,20.47,5.714C87.034,69.065,86.499,32.985,63.083,34.192z"/>
</svg>
