<?xml version="1.0" encoding="utf-8"?>
<!DOCTYPE svg PUBLIC "-//W3C//DTD SVG 1.1//EN" "http://www.w3.org/Graphics/SVG/1.1/DTD/svg11.dtd">
<svg version="1.1" id="Icon" xmlns="http://www.w3.org/2000/svg" xmlns:xlink="http://www.w3.org/1999/xlink" x="0px" y="0px"
	 width="130px" height="130px" viewBox="0 0 130 130" preserveAspectRatio="xMinYMin none" enable-background="new 0 0 130 130" xml:space="preserve">
<linearGradient id="SVGID_1_" gradientUnits="userSpaceOnUse" x1="354.9758" y1="507.4834" x2="354.9758" y2="518.9834" gradientTransform="matrix(11.3043 0 0 11.3043 -3947.7534 -5736.7446)">
	<stop  offset="0" style="stop-color:#F2F2F2"/>
	<stop  offset="1" style="stop-color:#F2F2F2"/>
</linearGradient>
<path fill="url(#SVGID_1_)" d="M130,130H0V0h130V130z"/>
<g>
	<polygon fill="#919191" points="88.751,110.124 31.878,110.124 31.878,74.999 39.011,74.999 39.011,103.027 81.619,103.027 
		81.619,74.999 88.751,74.999 	"/>
	<rect x="44.003" y="90.257" fill="#919191" width="32.803" height="7.095"/>
	
		<rect x="43.936" y="78.926" transform="matrix(-0.9961 -0.088 0.088 -0.9961 113.1774 169.9393)" fill="#A78B68" width="32.798" height="7.097"/>
	<polygon fill="#C19653" points="77.359,77.877 45.791,69.014 47.728,62.18 79.296,71.049 	"/>
	<polygon fill="#D48C28" points="80.145,69.014 51.721,52.717 55.281,46.566 83.708,62.858 	"/>
	<polygon fill="#FE8908" points="85.705,61.442 66.727,34.822 72.541,30.714 91.521,57.337 	"/>
	<polygon fill="#FF7A15" points="93.141,56.561 87.324,24.436 94.34,23.177 100.162,55.305 	"/>
</g>
</svg>
